<svg width="157" height="152" viewBox="0 0 157 152" fill="none" xmlns="http://www.w3.org/2000/svg">
<path d="M134.699 40.2064L130.919 33.6613H123.36L119.581 40.2064L123.36 46.7515H130.919L134.699 40.2064Z" fill="#2D097B"/>
<path d="M68.3644 52.4976H76.9426V104.318H68.3644V52.4976ZM98.5988 80.9741H79.8254V75.2085H98.5988V80.9741ZM100.779 52.4976V58.896H79.8254V52.4976H100.779Z" fill="#0BBDA8"/>
<path d="M68.3644 52.4976H76.9426V104.318H68.3644V52.4976ZM98.5988 80.9741H79.8254V75.2085H98.5988V80.9741ZM100.779 52.4976V58.896H79.8254V52.4976H100.779Z" fill="url(#paint0_linear)"/>
<path d="M64.2638 52.4507H55.8263V104.271H64.2638V52.4507ZM29.1076 104.271H38.0372L47.8107 85.4976C47.9513 85.4976 48.1154 85.521 48.3029 85.5679C48.4435 85.5679 48.6779 85.5679 49.006 85.5679C49.3341 85.5679 49.8263 85.5679 50.4826 85.5679C51.0919 85.5679 51.9122 85.5679 52.9435 85.5679V79.3804H48.1622C47.131 79.3804 46.0997 79.2163 45.0685 78.8882C44.0372 78.5132 43.0997 77.9272 42.256 77.1304C41.4122 76.3335 40.7326 75.2319 40.2169 73.8257C39.7013 72.3726 39.4435 70.5913 39.4435 68.4819C39.4435 67.6382 39.5607 66.6772 39.7951 65.5991C40.0294 64.4741 40.5216 63.4194 41.2716 62.4351C41.9747 61.4038 42.9826 60.5601 44.2951 59.9038C45.6076 59.2007 47.3419 58.8491 49.4982 58.8491H52.9435V52.4507H49.3576C47.1544 52.4507 44.9747 52.8022 42.8185 53.5054C40.6622 54.2085 38.7404 55.2632 37.0529 56.6694C35.3185 58.0757 33.9357 59.7866 32.9044 61.8022C31.8263 63.771 31.2872 65.9976 31.2872 68.4819C31.2872 72.2319 32.1544 75.4194 33.8888 78.0444C35.6232 80.6694 37.9669 82.6147 40.9201 83.8804L29.1076 104.271Z" fill="#0BBDA8"/>
<path d="M64.2638 52.4507H55.8263V104.271H64.2638V52.4507ZM29.1076 104.271H38.0372L47.8107 85.4976C47.9513 85.4976 48.1154 85.521 48.3029 85.5679C48.4435 85.5679 48.6779 85.5679 49.006 85.5679C49.3341 85.5679 49.8263 85.5679 50.4826 85.5679C51.0919 85.5679 51.9122 85.5679 52.9435 85.5679V79.3804H48.1622C47.131 79.3804 46.0997 79.2163 45.0685 78.8882C44.0372 78.5132 43.0997 77.9272 42.256 77.1304C41.4122 76.3335 40.7326 75.2319 40.2169 73.8257C39.7013 72.3726 39.4435 70.5913 39.4435 68.4819C39.4435 67.6382 39.5607 66.6772 39.7951 65.5991C40.0294 64.4741 40.5216 63.4194 41.2716 62.4351C41.9747 61.4038 42.9826 60.5601 44.2951 59.9038C45.6076 59.2007 47.3419 58.8491 49.4982 58.8491H52.9435V52.4507H49.3576C47.1544 52.4507 44.9747 52.8022 42.8185 53.5054C40.6622 54.2085 38.7404 55.2632 37.0529 56.6694C35.3185 58.0757 33.9357 59.7866 32.9044 61.8022C31.8263 63.771 31.2872 65.9976 31.2872 68.4819C31.2872 72.2319 32.1544 75.4194 33.8888 78.0444C35.6232 80.6694 37.9669 82.6147 40.9201 83.8804L29.1076 104.271Z" fill="url(#paint1_linear)"/>
<path d="M0 37.8118L65.4594 0V8.03472L6.95412 41.8276V109.38L65.4594 143.165L123.965 109.132L130.919 113.388L65.6106 151.177L0 113.388V37.8118Z" fill="#0BBDA8"/>
<path d="M0 37.8118L65.4594 0V8.03472L6.95412 41.8276V109.38L65.4594 143.165L123.965 109.132L130.919 113.388L65.6106 151.177L0 113.388V37.8118Z" fill="url(#paint2_linear)"/>
<path d="M65.4414 0L118.167 30.3817L114.69 36.4279L65.4414 8.05726V0Z" fill="#6C63FF"/>
<path d="M65.4414 0L118.167 30.3817L114.69 36.4279L65.4414 8.05726V0Z" fill="url(#paint3_linear)"/>
<path d="M130.894 113.391L130.894 52.5588L123.946 52.5588L123.965 109.132L130.894 113.391Z" fill="#6C63FF"/>
<path d="M130.894 113.391L130.894 52.5588L123.946 52.5588L123.965 109.132L130.894 113.391Z" fill="url(#paint4_linear)"/>
<defs>
<linearGradient id="paint0_linear" x1="80.0433" y1="66.1642" x2="42.8452" y2="81.4144" gradientUnits="userSpaceOnUse">
<stop stop-color="#2D097B"/>
<stop offset="0.458333" stop-color="#6C63FF"/>
<stop offset="1" stop-color="white" stop-opacity="0"/>
</linearGradient>
<linearGradient id="paint1_linear" x1="104.08" y1="75.6869" x2="73.3613" y2="117.591" gradientUnits="userSpaceOnUse">
<stop stop-color="#2D097B"/>
<stop offset="0.279923" stop-color="#6C63FF"/>
<stop offset="1" stop-color="white" stop-opacity="0"/>
</linearGradient>
<linearGradient id="paint2_linear" x1="101.893" y1="53.5081" x2="19.8117" y2="106.574" gradientUnits="userSpaceOnUse">
<stop stop-color="#2D097B"/>
<stop offset="0.479167" stop-color="#6C63FF"/>
<stop offset="1" stop-color="white" stop-opacity="0"/>
</linearGradient>
<linearGradient id="paint3_linear" x1="77.7052" y1="3.92998" x2="42.0306" y2="25.8521" gradientUnits="userSpaceOnUse">
<stop offset="0.203065" stop-color="#2D097B"/>
<stop offset="0.674289" stop-color="#6C63FF"/>
<stop offset="1" stop-color="white" stop-opacity="0"/>
</linearGradient>
<linearGradient id="paint4_linear" x1="122.604" y1="92.6565" x2="93.2796" y2="116.694" gradientUnits="userSpaceOnUse">
<stop offset="0.104382" stop-color="#2D097B"/>
<stop offset="0.590582" stop-color="#6C63FF"/>
<stop offset="1" stop-color="white" stop-opacity="0"/>
</linearGradient>
</defs>
</svg>
