<svg width="637" height="520" viewBox="0 0 637 520" fill="none" xmlns="http://www.w3.org/2000/svg">
<g clip-path="url(#clip0)">
<path d="M195.75 113.853C222.23 43.8768 290.017 -1.74447 364.814 0.0709889C463.577 2.46815 541.026 86.5132 536.506 185.202C536.109 193.869 535.073 202.563 533.411 211.08L507.55 343.668C496.131 402.214 456.45 451.301 401.598 474.736L381.289 483.412C348.941 497.232 313.25 501.258 278.636 494.991C168.074 474.972 102.767 359.566 142.534 254.478L195.75 113.853Z" fill="#1D1039" fill-opacity="0.44"/>
<path d="M18.0673 99.0145C17.3578 92.4648 17.3577 85.8576 18.0669 79.3078C24.1144 23.4576 78.5867 -13.8107 132.833 0.788246L181.48 13.8803C244.654 30.8818 286.462 90.8367 280.579 155.993L264.711 331.737C262.393 357.403 252.716 381.854 236.842 402.155L166.784 491.749C139.062 527.2 83.8978 521.837 63.5253 481.709C60.1586 475.077 58.0229 467.89 57.222 460.496L18.0673 99.0145Z" fill="#251A3C" fill-opacity="0.44"/>
<g clip-path="url(#clip1)">
<path d="M230.814 93.8833H229.704V153.331H230.814V93.8833Z" fill="#3F3D56"/>
<path d="M230.814 171.027H229.704V223.335H230.814V171.027Z" fill="#3F3D56"/>
<path d="M314.068 231.668H228.039V232.78H314.068V231.668Z" fill="#3F3D56"/>
<path d="M192.517 246.669H191.407V293.894H192.517V246.669Z" fill="#3F3D56"/>
<path d="M331.828 302.228H201.397V303.339H331.828V302.228Z" fill="#3F3D56"/>
<path d="M440.613 56.1035H439.503V112.218H440.613V56.1035Z" fill="#3F3D56"/>
<path d="M431.178 121.107H349.57V122.218H431.178V121.107Z" fill="#3F3D56"/>
<path d="M341.264 129.996H340.154V205H341.264V129.996Z" fill="#3F3D56"/>
<path d="M230.259 171.665C228.393 171.665 226.569 171.111 225.017 170.073C223.465 169.036 222.256 167.56 221.542 165.835C220.828 164.109 220.641 162.21 221.005 160.378C221.369 158.545 222.268 156.863 223.587 155.542C224.907 154.221 226.588 153.321 228.418 152.957C230.248 152.592 232.146 152.779 233.87 153.494C235.594 154.209 237.067 155.42 238.104 156.973C239.141 158.526 239.694 160.352 239.694 162.22C239.692 164.724 238.697 167.125 236.928 168.896C235.159 170.666 232.761 171.662 230.259 171.665ZM230.259 153.886C228.612 153.886 227.003 154.375 225.634 155.291C224.264 156.207 223.197 157.508 222.567 159.031C221.937 160.554 221.772 162.229 222.094 163.846C222.415 165.463 223.208 166.948 224.372 168.113C225.536 169.279 227.02 170.072 228.635 170.394C230.25 170.715 231.924 170.55 233.445 169.92C234.966 169.289 236.266 168.221 237.181 166.85C238.096 165.48 238.584 163.868 238.584 162.22C238.582 160.011 237.704 157.892 236.143 156.33C234.582 154.768 232.466 153.889 230.259 153.886Z" fill="#3F3D56"/>
<path d="M192.517 312.228C190.651 312.228 188.827 311.674 187.275 310.637C185.724 309.599 184.514 308.124 183.8 306.398C183.086 304.672 182.899 302.773 183.263 300.941C183.627 299.109 184.526 297.426 185.845 296.105C187.165 294.784 188.846 293.884 190.676 293.52C192.507 293.155 194.404 293.342 196.128 294.057C197.852 294.772 199.326 295.983 200.362 297.536C201.399 299.089 201.953 300.915 201.953 302.783C201.95 305.287 200.955 307.688 199.186 309.459C197.417 311.23 195.019 312.226 192.517 312.228ZM192.517 294.45C190.871 294.45 189.261 294.938 187.892 295.854C186.523 296.77 185.456 298.071 184.826 299.594C184.195 301.117 184.031 302.793 184.352 304.409C184.673 306.026 185.466 307.511 186.63 308.676C187.795 309.842 189.278 310.635 190.893 310.957C192.508 311.279 194.182 311.114 195.703 310.483C197.224 309.852 198.525 308.784 199.44 307.413C200.354 306.043 200.843 304.432 200.843 302.783C200.84 300.574 199.962 298.456 198.401 296.893C196.841 295.331 194.724 294.452 192.517 294.45Z" fill="#3F3D56"/>
<path d="M230.814 241.113C235.718 241.113 239.694 237.134 239.694 232.224C239.694 227.315 235.718 223.335 230.814 223.335C225.909 223.335 221.933 227.315 221.933 232.224C221.933 237.134 225.909 241.113 230.814 241.113Z" fill="#0BBDA8"/>
<path d="M552.173 161.665H460.039V162.776H552.173V161.665Z" fill="#3F3D56"/>
<path d="M451.714 171.027H450.604V223.335H451.714V171.027Z" fill="#3F3D56"/>
<path d="M441.723 231.668H367.905V232.78H441.723V231.668Z" fill="#3F3D56"/>
<path d="M574.374 236.669H497.781V237.78H574.374V236.669Z" fill="#3F3D56"/>
<path d="M490.01 246.669H488.9V293.894H490.01V246.669Z" fill="#3F3D56"/>
<path d="M480.02 302.228H349.589V303.339H480.02V302.228Z" fill="#3F3D56"/>
<path d="M341.264 259.448H340.154V293.894H341.264V259.448Z" fill="#3F3D56"/>
<path d="M451.159 171.11C456.063 171.11 460.039 167.13 460.039 162.22C460.039 157.311 456.063 153.331 451.159 153.331C446.254 153.331 442.278 157.311 442.278 162.22C442.278 167.13 446.254 171.11 451.159 171.11Z" fill="#0BBDA8"/>
<path d="M440.058 130.552C438.192 130.552 436.368 129.998 434.816 128.96C433.265 127.922 432.055 126.447 431.341 124.721C430.627 122.996 430.44 121.096 430.804 119.264C431.168 117.432 432.067 115.749 433.386 114.428C434.706 113.107 436.387 112.208 438.217 111.843C440.048 111.479 441.945 111.666 443.669 112.381C445.393 113.096 446.867 114.306 447.904 115.86C448.94 117.413 449.494 119.239 449.494 121.107C449.491 123.611 448.496 126.012 446.727 127.782C444.958 129.553 442.56 130.549 440.058 130.552ZM440.058 112.773C438.412 112.773 436.802 113.262 435.433 114.178C434.064 115.093 432.997 116.395 432.367 117.918C431.736 119.441 431.572 121.116 431.893 122.733C432.214 124.349 433.007 125.834 434.171 127C435.336 128.165 436.819 128.959 438.434 129.281C440.049 129.602 441.723 129.437 443.244 128.806C444.765 128.176 446.066 127.107 446.981 125.737C447.895 124.366 448.384 122.755 448.384 121.107C448.381 118.897 447.503 116.779 445.942 115.217C444.382 113.654 442.265 112.776 440.058 112.773Z" fill="#3F3D56"/>
<path d="M340.709 130.552C338.843 130.552 337.018 129.998 335.467 128.96C333.915 127.922 332.706 126.447 331.992 124.721C331.278 122.996 331.091 121.096 331.455 119.264C331.819 117.432 332.717 115.749 334.037 114.428C335.357 113.107 337.038 112.208 338.868 111.843C340.698 111.479 342.596 111.666 344.32 112.381C346.044 113.096 347.517 114.306 348.554 115.86C349.591 117.413 350.144 119.239 350.144 121.107C350.141 123.611 349.147 126.012 347.378 127.782C345.609 129.553 343.21 130.549 340.709 130.552ZM340.709 112.773C339.062 112.773 337.453 113.262 336.084 114.178C334.714 115.093 333.647 116.395 333.017 117.918C332.387 119.441 332.222 121.116 332.543 122.733C332.865 124.349 333.658 125.834 334.822 127C335.986 128.165 337.47 128.959 339.085 129.281C340.7 129.602 342.374 129.437 343.895 128.806C345.416 128.176 346.716 127.107 347.631 125.737C348.546 124.366 349.034 122.755 349.034 121.107C349.032 118.897 348.154 116.779 346.593 115.217C345.032 113.654 342.916 112.776 340.709 112.773Z" fill="#3F3D56"/>
<path d="M488.901 247.225C487.034 247.225 485.21 246.671 483.658 245.633C482.107 244.595 480.897 243.12 480.183 241.394C479.469 239.669 479.282 237.769 479.646 235.937C480.01 234.105 480.909 232.422 482.229 231.101C483.548 229.78 485.229 228.881 487.06 228.516C488.89 228.152 490.787 228.339 492.511 229.054C494.235 229.769 495.709 230.979 496.746 232.533C497.783 234.086 498.336 235.912 498.336 237.78C498.333 240.284 497.338 242.685 495.569 244.455C493.8 246.226 491.402 247.222 488.901 247.225ZM488.901 229.446C487.254 229.446 485.644 229.935 484.275 230.851C482.906 231.766 481.839 233.068 481.209 234.591C480.579 236.114 480.414 237.789 480.735 239.406C481.056 241.022 481.849 242.507 483.014 243.673C484.178 244.838 485.661 245.632 487.276 245.954C488.891 246.275 490.565 246.11 492.087 245.479C493.608 244.849 494.908 243.78 495.823 242.41C496.738 241.039 497.226 239.428 497.226 237.78C497.223 235.57 496.346 233.452 494.785 231.89C493.224 230.327 491.108 229.449 488.901 229.446Z" fill="#3F3D56"/>
<path d="M488.9 311.673C493.805 311.673 497.781 307.693 497.781 302.783C497.781 297.874 493.805 293.894 488.9 293.894C483.996 293.894 480.02 297.874 480.02 302.783C480.02 307.693 483.996 311.673 488.9 311.673Z" fill="#0BBDA8"/>
<path d="M340.709 312.228C338.843 312.228 337.018 311.674 335.467 310.637C333.915 309.599 332.706 308.124 331.992 306.398C331.278 304.672 331.091 302.773 331.455 300.941C331.819 299.109 332.717 297.426 334.037 296.105C335.357 294.784 337.038 293.884 338.868 293.52C340.698 293.155 342.596 293.342 344.32 294.057C346.044 294.772 347.517 295.983 348.554 297.536C349.591 299.089 350.144 300.915 350.144 302.783C350.141 305.287 349.147 307.688 347.378 309.459C345.609 311.23 343.21 312.226 340.709 312.228ZM340.709 294.45C339.062 294.45 337.453 294.938 336.084 295.854C334.714 296.77 333.647 298.071 333.017 299.594C332.387 301.117 332.222 302.793 332.543 304.409C332.865 306.026 333.658 307.511 334.822 308.676C335.986 309.842 337.47 310.635 339.085 310.957C340.7 311.279 342.374 311.114 343.895 310.483C345.416 309.852 346.716 308.784 347.631 307.413C348.546 306.043 349.034 304.432 349.034 302.783C349.032 300.574 348.154 298.456 346.593 296.893C345.032 295.331 342.916 294.452 340.709 294.45Z" fill="#3F3D56"/>
<path d="M450.604 241.669C448.737 241.669 446.913 241.115 445.362 240.077C443.81 239.039 442.601 237.564 441.886 235.838C441.172 234.113 440.985 232.214 441.35 230.381C441.714 228.549 442.612 226.866 443.932 225.545C445.251 224.225 446.933 223.325 448.763 222.961C450.593 222.596 452.49 222.783 454.214 223.498C455.939 224.213 457.412 225.423 458.449 226.977C459.486 228.53 460.039 230.356 460.039 232.224C460.036 234.728 459.041 237.129 457.272 238.9C455.504 240.67 453.105 241.666 450.604 241.669ZM450.604 223.89C448.957 223.89 447.347 224.379 445.978 225.295C444.609 226.21 443.542 227.512 442.912 229.035C442.282 230.558 442.117 232.233 442.438 233.85C442.759 235.466 443.552 236.951 444.717 238.117C445.881 239.282 447.364 240.076 448.979 240.398C450.594 240.719 452.268 240.554 453.79 239.923C455.311 239.293 456.611 238.225 457.526 236.854C458.441 235.484 458.929 233.872 458.929 232.224C458.927 230.015 458.049 227.896 456.488 226.334C454.927 224.772 452.811 223.893 450.604 223.89Z" fill="#3F3D56"/>
<path d="M192.517 218.89C190.322 218.89 188.175 219.542 186.35 220.763C184.524 221.984 183.102 223.719 182.261 225.749C181.421 227.78 181.201 230.014 181.63 232.17C182.058 234.325 183.115 236.305 184.668 237.859C186.22 239.413 188.198 240.471 190.351 240.9C192.505 241.329 194.737 241.109 196.765 240.268C198.793 239.427 200.527 238.002 201.747 236.175C202.966 234.348 203.618 232.199 203.618 230.002C203.609 227.057 202.437 224.236 200.357 222.154C198.277 220.072 195.458 218.899 192.517 218.89ZM192.517 222.224C193.176 222.224 193.82 222.419 194.367 222.785C194.915 223.152 195.342 223.672 195.594 224.281C195.846 224.89 195.912 225.561 195.783 226.207C195.655 226.854 195.338 227.448 194.872 227.914C194.406 228.38 193.813 228.698 193.167 228.827C192.521 228.955 191.851 228.889 191.243 228.637C190.634 228.385 190.114 227.957 189.748 227.409C189.382 226.861 189.187 226.216 189.187 225.557C189.19 224.674 189.542 223.828 190.165 223.203C190.789 222.579 191.635 222.226 192.517 222.224ZM192.517 238.271C191.201 238.265 189.907 237.938 188.747 237.318C187.586 236.698 186.594 235.804 185.857 234.714C185.91 232.491 190.297 231.268 192.517 231.268C194.737 231.268 199.124 232.491 199.177 234.714C198.439 235.803 197.447 236.697 196.287 237.317C195.126 237.937 193.832 238.264 192.517 238.271Z" fill="#F2F2F2"/>
<path d="M230.814 67.2153C228.618 67.2153 226.472 67.867 224.647 69.088C222.821 70.309 221.398 72.0444 220.558 74.0748C219.718 76.1052 219.498 78.3394 219.926 80.4948C220.355 82.6503 221.412 84.6302 222.964 86.1842C224.517 87.7382 226.495 88.7965 228.648 89.2252C230.801 89.654 233.033 89.4339 235.062 88.5929C237.09 87.7519 238.824 86.3277 240.043 84.5004C241.263 82.6731 241.914 80.5247 241.914 78.327C241.905 75.3827 240.733 72.5614 238.653 70.4794C236.573 68.3974 233.755 67.224 230.814 67.2153ZM230.814 70.5488C231.472 70.5488 232.116 70.7444 232.664 71.1106C233.211 71.4769 233.638 71.9976 233.89 72.6067C234.142 73.2158 234.208 73.8861 234.08 74.5327C233.951 75.1793 233.634 75.7733 233.168 76.2395C232.703 76.7057 232.109 77.0232 231.463 77.1518C230.817 77.2804 230.148 77.2144 229.539 76.9621C228.931 76.7098 228.411 76.2825 228.045 75.7344C227.679 75.1862 227.483 74.5417 227.483 73.8824C227.486 72.9992 227.838 72.153 228.462 71.5285C229.086 70.904 229.931 70.5518 230.814 70.5488ZM230.814 86.5967C229.498 86.5907 228.204 86.2635 227.043 85.6435C225.883 85.0235 224.891 84.1294 224.153 83.0388C224.207 80.8165 228.594 79.5931 230.814 79.5931C233.034 79.5931 237.421 80.8165 237.474 83.0388C236.736 84.1286 235.744 85.0221 234.583 85.642C233.423 86.2619 232.129 86.5896 230.814 86.5967Z" fill="#F2F2F2"/>
<path d="M440.058 28.8799C437.863 28.8799 435.716 29.5316 433.891 30.7525C432.065 31.9735 430.643 33.7089 429.803 35.7393C428.962 37.7697 428.743 40.0039 429.171 42.1594C429.599 44.3148 430.656 46.2948 432.209 47.8488C433.761 49.4028 435.739 50.461 437.892 50.8898C440.046 51.3185 442.278 51.0985 444.306 50.2575C446.334 49.4165 448.068 47.9922 449.288 46.1649C450.507 44.3376 451.159 42.1893 451.159 39.9916C451.15 37.0472 449.978 34.2259 447.898 32.1439C445.818 30.062 442.999 28.8885 440.058 28.8799ZM440.058 32.2134C440.717 32.2134 441.361 32.4089 441.908 32.7752C442.456 33.1415 442.883 33.6621 443.135 34.2712C443.387 34.8803 443.453 35.5506 443.324 36.1972C443.196 36.8439 442.879 37.4379 442.413 37.9041C441.947 38.3703 441.354 38.6877 440.708 38.8164C440.062 38.945 439.392 38.879 438.784 38.6267C438.175 38.3744 437.655 37.9471 437.289 37.3989C436.923 36.8507 436.728 36.2062 436.728 35.5469C436.731 34.6637 437.083 33.8175 437.706 33.193C438.33 32.5685 439.176 32.2163 440.058 32.2134ZM440.058 48.2613C438.743 48.2553 437.448 47.9281 436.288 47.3081C435.127 46.6881 434.135 45.794 433.398 44.7034C433.451 42.481 437.838 41.2577 440.058 41.2577C442.278 41.2577 446.665 42.481 446.718 44.7034C445.98 45.7932 444.988 46.6866 443.828 47.3065C442.667 47.9264 441.373 48.2541 440.058 48.2613Z" fill="#F2F2F2"/>
<path d="M567.714 150.553C565.518 150.553 563.372 151.205 561.547 152.426C559.721 153.647 558.298 155.382 557.458 157.413C556.618 159.443 556.398 161.677 556.827 163.833C557.255 165.988 558.312 167.968 559.865 169.522C561.417 171.076 563.395 172.134 565.548 172.563C567.701 172.992 569.933 172.772 571.962 171.931C573.99 171.09 575.724 169.665 576.944 167.838C578.163 166.011 578.814 163.862 578.814 161.665C578.806 158.72 577.633 155.899 575.554 153.817C573.474 151.735 570.655 150.562 567.714 150.553ZM567.714 153.887C568.372 153.887 569.016 154.082 569.564 154.448C570.112 154.815 570.538 155.335 570.79 155.944C571.042 156.554 571.108 157.224 570.98 157.87C570.851 158.517 570.534 159.111 570.069 159.577C569.603 160.043 569.009 160.361 568.363 160.49C567.717 160.618 567.048 160.552 566.439 160.3C565.831 160.048 565.311 159.62 564.945 159.072C564.579 158.524 564.384 157.879 564.384 157.22C564.387 156.337 564.738 155.491 565.362 154.866C565.986 154.242 566.831 153.89 567.714 153.887ZM567.714 169.934C566.398 169.928 565.104 169.601 563.943 168.981C562.783 168.361 561.791 167.467 561.053 166.377C561.107 164.154 565.494 162.931 567.714 162.931C569.934 162.931 574.321 164.154 574.374 166.377C573.636 167.466 572.644 168.36 571.483 168.98C570.323 169.6 569.029 169.927 567.714 169.934Z" fill="#F2F2F2"/>
<path d="M588.805 225.557C586.609 225.557 584.463 226.209 582.638 227.43C580.812 228.651 579.389 230.386 578.549 232.417C577.709 234.447 577.489 236.681 577.918 238.837C578.346 240.992 579.403 242.972 580.956 244.526C582.508 246.08 584.486 247.138 586.639 247.567C588.793 247.996 591.024 247.776 593.053 246.935C595.081 246.094 596.815 244.67 598.035 242.842C599.254 241.015 599.905 238.867 599.905 236.669C599.897 233.724 598.724 230.903 596.645 228.821C594.565 226.739 591.746 225.566 588.805 225.557ZM588.805 228.891C589.463 228.891 590.107 229.086 590.655 229.452C591.203 229.819 591.629 230.339 591.881 230.948C592.134 231.558 592.199 232.228 592.071 232.874C591.942 233.521 591.625 234.115 591.16 234.581C590.694 235.048 590.101 235.365 589.455 235.494C588.809 235.622 588.139 235.556 587.53 235.304C586.922 235.052 586.402 234.624 586.036 234.076C585.67 233.528 585.475 232.883 585.475 232.224C585.478 231.341 585.829 230.495 586.453 229.87C587.077 229.246 587.923 228.894 588.805 228.891ZM588.805 244.939C587.489 244.933 586.195 244.605 585.034 243.985C583.874 243.365 582.882 242.471 582.145 241.381C582.198 239.158 586.585 237.935 588.805 237.935C591.025 237.935 595.412 239.158 595.465 241.381C594.727 242.47 593.735 243.364 592.574 243.984C591.414 244.604 590.12 244.931 588.805 244.939Z" fill="#F2F2F2"/>
<rect x="318" y="209" width="45.3499" height="45.3499" rx="22.6749" fill="black"/>
<path d="M358.318 223.244L357.355 221.576H355.429L354.466 223.244L355.429 224.911H357.355L358.318 223.244Z" fill="#2D097B"/>
<path d="M341.976 227.045H344.12V240H341.976V227.045ZM349.534 234.164H344.841V232.723H349.534V234.164ZM350.079 227.045V228.645H344.841V227.045H350.079Z" fill="#0BBDA8"/>
<path d="M341.976 227.045H344.12V240H341.976V227.045ZM349.534 234.164H344.841V232.723H349.534V234.164ZM350.079 227.045V228.645H344.841V227.045H350.079Z" fill="url(#paint0_linear)"/>
<path d="M340.219 227.045H338.109V240H340.219V227.045ZM331.43 240H333.662L336.105 235.307C336.141 235.307 336.182 235.312 336.229 235.324C336.264 235.324 336.322 235.324 336.404 235.324C336.486 235.324 336.609 235.324 336.773 235.324C336.926 235.324 337.131 235.324 337.389 235.324V233.777H336.193C335.936 233.777 335.678 233.736 335.42 233.654C335.162 233.561 334.928 233.414 334.717 233.215C334.506 233.016 334.336 232.74 334.207 232.389C334.078 232.025 334.014 231.58 334.014 231.053C334.014 230.842 334.043 230.602 334.102 230.332C334.16 230.051 334.283 229.787 334.471 229.541C334.646 229.283 334.898 229.072 335.227 228.908C335.555 228.732 335.988 228.645 336.527 228.645H337.389V227.045H336.492C335.941 227.045 335.396 227.133 334.857 227.309C334.318 227.484 333.838 227.748 333.416 228.1C332.982 228.451 332.637 228.879 332.379 229.383C332.109 229.875 331.975 230.432 331.975 231.053C331.975 231.99 332.191 232.787 332.625 233.443C333.059 234.1 333.645 234.586 334.383 234.902L331.43 240Z" fill="#0BBDA8"/>
<path d="M340.219 227.045H338.109V240H340.219V227.045ZM331.43 240H333.662L336.105 235.307C336.141 235.307 336.182 235.312 336.229 235.324C336.264 235.324 336.322 235.324 336.404 235.324C336.486 235.324 336.609 235.324 336.773 235.324C336.926 235.324 337.131 235.324 337.389 235.324V233.777H336.193C335.936 233.777 335.678 233.736 335.42 233.654C335.162 233.561 334.928 233.414 334.717 233.215C334.506 233.016 334.336 232.74 334.207 232.389C334.078 232.025 334.014 231.58 334.014 231.053C334.014 230.842 334.043 230.602 334.102 230.332C334.16 230.051 334.283 229.787 334.471 229.541C334.646 229.283 334.898 229.072 335.227 228.908C335.555 228.732 335.988 228.645 336.527 228.645H337.389V227.045H336.492C335.941 227.045 335.396 227.133 334.857 227.309C334.318 227.484 333.838 227.748 333.416 228.1C332.982 228.451 332.637 228.879 332.379 229.383C332.109 229.875 331.975 230.432 331.975 231.053C331.975 231.99 332.191 232.787 332.625 233.443C333.059 234.1 333.645 234.586 334.383 234.902L331.43 240Z" fill="url(#paint1_linear)"/>
<path d="M324 222.634L340.678 213V215.047L325.772 223.657V240.868L340.678 249.475L355.583 240.804L357.355 241.889L340.716 251.516L324 241.889V222.634Z" fill="#0BBDA8"/>
<path d="M324 222.634L340.678 213V215.047L325.772 223.657V240.868L340.678 249.475L355.583 240.804L357.355 241.889L340.716 251.516L324 241.889V222.634Z" fill="url(#paint2_linear)"/>
<path d="M340.673 213L354.106 220.741L353.22 222.281L340.673 215.053V213Z" fill="#6C63FF"/>
<path d="M340.673 213L354.106 220.741L353.22 222.281L340.673 215.053V213Z" fill="url(#paint3_linear)"/>
<path d="M357.349 241.889L357.349 226.391L355.579 226.391L355.583 240.804L357.349 241.889Z" fill="#6C63FF"/>
<path d="M357.349 241.889L357.349 226.391L355.579 226.391L355.583 240.804L357.349 241.889Z" fill="url(#paint4_linear)"/>
<path d="M140.07 436.287C138.491 450.664 55.5813 449.457 55.7069 436.286C57.2862 421.911 140.196 423.118 140.07 436.287Z" fill="black"/>
<path d="M113.293 400.098L116.654 407.387L122.815 406.826L126.737 393.93L120.575 390.565L113.293 400.098Z" fill="#FFB8B8"/>
<path d="M92.1397 416.886L92.0071 421.965L101.53 422.526V416.358L92.1397 416.886Z" fill="#FFB8B8"/>
<path d="M95.3678 324.4L97.6084 369.257L92.0071 418.04L108.812 420.283L119.455 358.604L122.815 316.55L95.3678 324.4Z" fill="#2F2E41"/>
<path d="M69.0407 308.139C69.0407 308.139 62.3188 352.436 76.3227 367.015C90.3266 381.594 109.372 407.387 109.372 407.387L122.816 390.565L88.6461 354.118L95.368 329.446L122.816 316.55L118.334 285.71L78.0032 285.15L69.0407 308.139Z" fill="#2F2E41"/>
<path d="M102.09 205.527C108.896 205.527 114.413 200.004 114.413 193.191C114.413 186.378 108.896 180.855 102.09 180.855C95.2839 180.855 89.7665 186.378 89.7665 193.191C89.7665 200.004 95.2839 205.527 102.09 205.527Z" fill="#FFB8B8"/>
<path d="M91.4469 195.995C91.4469 195.995 90.8867 213.377 88.0859 215.62C85.2851 217.863 98.1687 227.395 98.1687 227.395L106.571 213.938V201.602L91.4469 195.995Z" fill="#FFB8B8"/>
<path d="M97.0483 219.545L90.2476 209.266L86.4051 214.499L80.8038 230.199L85.2851 291.317L111.612 291.878L114.973 221.788L106.571 211.695L97.0483 219.545Z" fill="#D0CDE1"/>
<path d="M125.616 223.47L130.098 222.909C130.098 222.909 131.218 223.47 131.778 227.395C132.338 231.32 139.06 266.085 139.06 266.085L130.098 308.7L120.015 295.243L126.177 271.692L120.015 248.142L125.616 223.47Z" fill="#0BBDA8"/>
<path d="M68.4806 222.909H65.1194L56.7174 268.328L64.5594 303.654L72.4013 290.757L70.1607 276.739L71.2813 264.403L75.2025 257.113L68.4806 222.909Z" fill="#0BBDA8"/>
<path d="M118.334 405.144C118.334 405.144 114.973 404.022 114.973 406.265C114.973 408.508 117.214 415.237 117.214 415.237C117.214 415.237 113.853 435.984 118.894 434.862C123.936 433.741 127.857 424.208 128.417 421.405C128.977 418.601 131.778 404.022 131.778 404.022C131.778 404.022 136.259 393.369 133.459 392.808C130.658 392.247 122.816 390.004 122.816 390.004C122.816 390.004 127.297 404.022 118.334 405.144Z" fill="#0BBDA8"/>
<path d="M102.09 422.526C102.09 422.526 93.1273 416.919 91.4469 421.405C90.3324 424.677 89.581 428.061 89.2062 431.498C89.2062 431.498 86.9656 438.787 95.9281 437.666C104.891 436.544 103.77 436.544 104.33 433.18C104.891 429.815 102.09 422.526 102.09 422.526Z" fill="#0BBDA8"/>
<path d="M94.8078 193.191L97.0485 192.63C97.0485 192.63 98.7289 183.098 102.65 184.22C106.571 185.341 116.654 186.463 116.654 181.977C116.654 177.491 107.131 173.566 101.53 174.127C95.9282 174.687 86.4055 176.37 86.9657 184.78C87.5258 193.191 91.1404 201.373 91.1404 201.373L91.4323 196.386L94.8078 193.191Z" fill="#09080E"/>
<path d="M106.571 226.274L97.0483 219.545L106.571 211.695L109.877 215.666L106.571 226.274Z" fill="#D0CDE1"/>
<path d="M88.6458 225.713L97.0483 219.545L90.3264 209.452L86.4052 214.499L88.6458 225.713Z" fill="#D0CDE1"/>
<path d="M129.537 222.91L111.613 215.62L107.411 212.536L94.8078 268.328L86.4055 243.095L88.9262 210.854L65.6797 222.91L73.522 261.039L74.6423 275.617L71.2813 287.392C71.2813 287.392 59.518 295.803 63.4391 304.775C67.3602 313.746 71.8415 314.307 71.8415 314.307C71.8415 314.307 90.8868 296.364 92.0071 291.878C93.1274 287.392 94.8079 279.542 94.8079 279.542C94.8079 279.542 104.331 315.429 115.534 314.868C126.737 314.307 126.737 302.532 126.737 302.532L123.936 290.196L119.455 277.299L121.695 255.992L129.537 222.91Z" fill="#2F2E41"/>
</g>
</g>
<defs>
<linearGradient id="paint0_linear" x1="344.893" y1="230.236" x2="335.71" y2="234.209" gradientUnits="userSpaceOnUse">
<stop stop-color="#2D097B"/>
<stop offset="0.458333" stop-color="#6C63FF"/>
<stop offset="1" stop-color="white" stop-opacity="0"/>
</linearGradient>
<linearGradient id="paint1_linear" x1="352.187" y1="232.5" x2="343.732" y2="244.361" gradientUnits="userSpaceOnUse">
<stop stop-color="#2D097B"/>
<stop offset="0.279923" stop-color="#6C63FF"/>
<stop offset="1" stop-color="white" stop-opacity="0"/>
</linearGradient>
<linearGradient id="paint2_linear" x1="349.96" y1="226.633" x2="329.048" y2="240.153" gradientUnits="userSpaceOnUse">
<stop stop-color="#2D097B"/>
<stop offset="0.479167" stop-color="#6C63FF"/>
<stop offset="1" stop-color="white" stop-opacity="0"/>
</linearGradient>
<linearGradient id="paint3_linear" x1="343.797" y1="214.001" x2="334.708" y2="219.587" gradientUnits="userSpaceOnUse">
<stop offset="0.203065" stop-color="#2D097B"/>
<stop offset="0.674289" stop-color="#6C63FF"/>
<stop offset="1" stop-color="white" stop-opacity="0"/>
</linearGradient>
<linearGradient id="paint4_linear" x1="355.237" y1="236.607" x2="347.766" y2="242.731" gradientUnits="userSpaceOnUse">
<stop offset="0.104382" stop-color="#2D097B"/>
<stop offset="0.590582" stop-color="#6C63FF"/>
<stop offset="1" stop-color="white" stop-opacity="0"/>
</linearGradient>
<clipPath id="clip0">
<rect width="637" height="520" fill="white"/>
</clipPath>
<clipPath id="clip1">
<rect width="544.198" height="417.742" fill="white" transform="translate(55.7068 28.8799)"/>
</clipPath>
</defs>
</svg>
