<svg width="224" height="81" viewBox="0 0 224 81" fill="none" xmlns="http://www.w3.org/2000/svg">
<path d="M72.0684 21.512L70.0462 18.0101H66.002L63.9799 21.512L66.002 25.0138H70.0462L72.0684 21.512Z" fill="#2D097B"/>
<path d="M38.9188 26.6504H43.4462V54H38.9188V26.6504ZM54.8759 41.6797H44.9677V38.6367H54.8759V41.6797ZM56.0262 26.6504V30.0273H44.9677V26.6504H56.0262Z" fill="#0BBDA8"/>
<path d="M38.9188 26.6504H43.4462V54H38.9188V26.6504ZM54.8759 41.6797H44.9677V38.6367H54.8759V41.6797ZM56.0262 26.6504V30.0273H44.9677V26.6504H56.0262Z" fill="url(#paint0_linear)"/>
<path d="M34.4062 26.9274H29.9531V54.277H34.4062V26.9274ZM15.8516 54.277H20.5645L25.7227 44.3688C25.7969 44.3688 25.8835 44.3811 25.9824 44.4059C26.0566 44.4059 26.1803 44.4059 26.3535 44.4059C26.5267 44.4059 26.7865 44.4059 27.1328 44.4059C27.4544 44.4059 27.8874 44.4059 28.4316 44.4059V41.1403H25.9082C25.3639 41.1403 24.8197 41.0537 24.2754 40.8805C23.7311 40.6826 23.2363 40.3733 22.791 39.9528C22.3457 39.5322 21.987 38.9508 21.7148 38.2086C21.4427 37.4417 21.3066 36.5016 21.3066 35.3883C21.3066 34.943 21.3685 34.4358 21.4922 33.8668C21.6159 33.2731 21.8757 32.7164 22.2715 32.1969C22.6426 31.6526 23.1745 31.2073 23.8672 30.861C24.5599 30.4899 25.4753 30.3043 26.6133 30.3043H28.4316V26.9274H26.5391C25.3763 26.9274 24.2259 27.1129 23.0879 27.484C21.9499 27.8551 20.9355 28.4117 20.0449 29.1539C19.1296 29.8961 18.3997 30.7991 17.8555 31.8629C17.2865 32.902 17.002 34.0771 17.002 35.3883C17.002 37.3675 17.4596 39.0498 18.375 40.4352C19.2904 41.8206 20.5273 42.8473 22.0859 43.5153L15.8516 54.277Z" fill="#0BBDA8"/>
<path d="M34.4062 26.9274H29.9531V54.277H34.4062V26.9274ZM15.8516 54.277H20.5645L25.7227 44.3688C25.7969 44.3688 25.8835 44.3811 25.9824 44.4059C26.0566 44.4059 26.1803 44.4059 26.3535 44.4059C26.5267 44.4059 26.7865 44.4059 27.1328 44.4059C27.4544 44.4059 27.8874 44.4059 28.4316 44.4059V41.1403H25.9082C25.3639 41.1403 24.8197 41.0537 24.2754 40.8805C23.7311 40.6826 23.2363 40.3733 22.791 39.9528C22.3457 39.5322 21.987 38.9508 21.7148 38.2086C21.4427 37.4417 21.3066 36.5016 21.3066 35.3883C21.3066 34.943 21.3685 34.4358 21.4922 33.8668C21.6159 33.2731 21.8757 32.7164 22.2715 32.1969C22.6426 31.6526 23.1745 31.2073 23.8672 30.861C24.5599 30.4899 25.4753 30.3043 26.6133 30.3043H28.4316V26.9274H26.5391C25.3763 26.9274 24.2259 27.1129 23.0879 27.484C21.9499 27.8551 20.9355 28.4117 20.0449 29.1539C19.1296 29.8961 18.3997 30.7991 17.8555 31.8629C17.2865 32.902 17.002 34.0771 17.002 35.3883C17.002 37.3675 17.4596 39.0498 18.375 40.4352C19.2904 41.8206 20.5273 42.8473 22.0859 43.5153L15.8516 54.277Z" fill="url(#paint1_linear)"/>
<path d="M0 20.2306L35.023 0V4.29884L3.72069 22.3791V58.522L35.023 76.5983L66.3253 58.3895L70.0459 60.6665L35.1039 80.8845L0 60.6665V20.2306Z" fill="#0BBDA8"/>
<path d="M0 20.2306L35.023 0V4.29884L3.72069 22.3791V58.522L35.023 76.5983L66.3253 58.3895L70.0459 60.6665L35.1039 80.8845L0 60.6665V20.2306Z" fill="url(#paint2_linear)"/>
<path d="M35.0131 0L63.2229 16.2552L61.3626 19.4901L35.0131 4.3109V0Z" fill="#6C63FF"/>
<path d="M35.0131 0L63.2229 16.2552L61.3626 19.4901L35.0131 4.3109V0Z" fill="url(#paint3_linear)"/>
<path d="M70.0325 60.6678L70.0324 28.1207L66.3152 28.1207L66.325 58.3895L70.0325 60.6678Z" fill="#6C63FF"/>
<path d="M70.0325 60.6678L70.0324 28.1207L66.3152 28.1207L66.325 58.3895L70.0325 60.6678Z" fill="url(#paint4_linear)"/>
<path d="M92.6836 21.709H94.4414C96.1641 21.709 97.4355 21.4219 98.2559 20.8477C99.0762 20.2734 99.4863 19.3711 99.4863 18.1406C99.4863 16.9219 99.0645 16.0547 98.2207 15.5391C97.3887 15.0234 96.0938 14.7656 94.3359 14.7656H92.6836V21.709ZM92.6836 26.1387V36H87.2344V10.3008H94.7227C98.2148 10.3008 100.799 10.9395 102.475 12.2168C104.15 13.4824 104.988 15.4102 104.988 18C104.988 19.5117 104.572 20.8594 103.74 22.043C102.908 23.2148 101.73 24.1348 100.207 24.8027C104.074 30.5801 106.594 34.3125 107.766 36H101.719L95.584 26.1387H92.6836ZM114.85 26.1387C114.85 28.084 115.166 29.5547 115.799 30.5508C116.443 31.5469 117.486 32.0449 118.928 32.0449C120.357 32.0449 121.383 31.5527 122.004 30.5684C122.637 29.5723 122.953 28.0957 122.953 26.1387C122.953 24.1934 122.637 22.7344 122.004 21.7617C121.371 20.7891 120.334 20.3027 118.893 20.3027C117.463 20.3027 116.432 20.7891 115.799 21.7617C115.166 22.7227 114.85 24.1816 114.85 26.1387ZM128.438 26.1387C128.438 29.3379 127.594 31.8398 125.906 33.6445C124.219 35.4492 121.869 36.3516 118.857 36.3516C116.971 36.3516 115.307 35.9414 113.865 35.1211C112.424 34.2891 111.316 33.0996 110.543 31.5527C109.77 30.0059 109.383 28.2012 109.383 26.1387C109.383 22.9277 110.221 20.4316 111.896 18.6504C113.572 16.8691 115.928 15.9785 118.963 15.9785C120.85 15.9785 122.514 16.3887 123.955 17.209C125.396 18.0293 126.504 19.207 127.277 20.7422C128.051 22.2773 128.438 24.0762 128.438 26.1387ZM137.139 26.1387C137.139 28.084 137.455 29.5547 138.088 30.5508C138.732 31.5469 139.775 32.0449 141.217 32.0449C142.646 32.0449 143.672 31.5527 144.293 30.5684C144.926 29.5723 145.242 28.0957 145.242 26.1387C145.242 24.1934 144.926 22.7344 144.293 21.7617C143.66 20.7891 142.623 20.3027 141.182 20.3027C139.752 20.3027 138.721 20.7891 138.088 21.7617C137.455 22.7227 137.139 24.1816 137.139 26.1387ZM150.727 26.1387C150.727 29.3379 149.883 31.8398 148.195 33.6445C146.508 35.4492 144.158 36.3516 141.146 36.3516C139.26 36.3516 137.596 35.9414 136.154 35.1211C134.713 34.2891 133.605 33.0996 132.832 31.5527C132.059 30.0059 131.672 28.2012 131.672 26.1387C131.672 22.9277 132.51 20.4316 134.186 18.6504C135.861 16.8691 138.217 15.9785 141.252 15.9785C143.139 15.9785 144.803 16.3887 146.244 17.209C147.686 18.0293 148.793 19.207 149.566 20.7422C150.34 22.2773 150.727 24.0762 150.727 26.1387ZM160.307 25.3125L162.645 22.3242L168.146 16.3477H174.193L166.389 24.873L174.668 36H168.48L162.82 28.0371L160.518 29.8828V36H155.156V8.64844H160.518V20.8477L160.236 25.3125H160.307ZM92.5957 71H87.2344V45.3008H101.965V49.7656H92.5957V56.3926H101.314V60.8398H92.5957V71ZM106.342 46.2676C106.342 44.5215 107.314 43.6484 109.26 43.6484C111.205 43.6484 112.178 44.5215 112.178 46.2676C112.178 47.0996 111.932 47.75 111.439 48.2188C110.959 48.6758 110.232 48.9043 109.26 48.9043C107.314 48.9043 106.342 48.0254 106.342 46.2676ZM111.932 71H106.57V51.3477H111.932V71ZM135.715 71H130.354V59.5215C130.354 58.1035 130.102 57.043 129.598 56.3398C129.094 55.625 128.291 55.2676 127.189 55.2676C125.689 55.2676 124.605 55.7715 123.938 56.7793C123.27 57.7754 122.936 59.4336 122.936 61.7539V71H117.574V51.3477H121.67L122.391 53.8613H122.689C123.287 52.9121 124.107 52.1973 125.15 51.7168C126.205 51.2246 127.4 50.9785 128.736 50.9785C131.021 50.9785 132.756 51.5996 133.939 52.8418C135.123 54.0723 135.715 55.8535 135.715 58.1855V71ZM153.715 71L152.678 68.3281H152.537C151.635 69.4648 150.703 70.2559 149.742 70.7012C148.793 71.1348 147.551 71.3516 146.016 71.3516C144.129 71.3516 142.641 70.8125 141.551 69.7344C140.473 68.6562 139.934 67.1211 139.934 65.1289C139.934 63.043 140.66 61.5078 142.113 60.5234C143.578 59.5273 145.781 58.9766 148.723 58.8711L152.133 58.7656V57.9043C152.133 55.9121 151.113 54.916 149.074 54.916C147.504 54.916 145.658 55.3906 143.537 56.3398L141.762 52.7188C144.023 51.5352 146.531 50.9434 149.285 50.9434C151.922 50.9434 153.943 51.5176 155.35 52.666C156.756 53.8145 157.459 55.5605 157.459 57.9043V71H153.715ZM152.133 61.8945L150.059 61.9648C148.5 62.0117 147.34 62.293 146.578 62.8086C145.816 63.3242 145.436 64.1094 145.436 65.1641C145.436 66.6758 146.303 67.4316 148.037 67.4316C149.279 67.4316 150.27 67.0742 151.008 66.3594C151.758 65.6445 152.133 64.6953 152.133 63.5117V61.8945ZM181.137 71H175.775V59.5215C175.775 58.1035 175.523 57.043 175.02 56.3398C174.516 55.625 173.713 55.2676 172.611 55.2676C171.111 55.2676 170.027 55.7715 169.359 56.7793C168.691 57.7754 168.357 59.4336 168.357 61.7539V71H162.996V51.3477H167.092L167.812 53.8613H168.111C168.709 52.9121 169.529 52.1973 170.572 51.7168C171.627 51.2246 172.822 50.9785 174.158 50.9785C176.443 50.9785 178.178 51.5996 179.361 52.8418C180.545 54.0723 181.137 55.8535 181.137 58.1855V71ZM194.637 71.3516C188.52 71.3516 185.461 67.9941 185.461 61.2793C185.461 57.9395 186.293 55.3906 187.957 53.6328C189.621 51.8633 192.006 50.9785 195.111 50.9785C197.385 50.9785 199.424 51.4238 201.229 52.3145L199.646 56.4629C198.803 56.123 198.018 55.8477 197.291 55.6367C196.564 55.4141 195.838 55.3027 195.111 55.3027C192.322 55.3027 190.928 57.2832 190.928 61.2441C190.928 65.0879 192.322 67.0098 195.111 67.0098C196.143 67.0098 197.098 66.875 197.977 66.6055C198.855 66.3242 199.734 65.8906 200.613 65.3047V69.8926C199.746 70.4434 198.867 70.8242 197.977 71.0352C197.098 71.2461 195.984 71.3516 194.637 71.3516ZM213.322 54.793C212.186 54.793 211.295 55.1562 210.65 55.8828C210.006 56.5977 209.637 57.6172 209.543 58.9414H217.066C217.043 57.6172 216.697 56.5977 216.029 55.8828C215.361 55.1562 214.459 54.793 213.322 54.793ZM214.078 71.3516C210.914 71.3516 208.441 70.4785 206.66 68.7324C204.879 66.9863 203.988 64.5137 203.988 61.3145C203.988 58.0215 204.809 55.4785 206.449 53.6855C208.102 51.8809 210.381 50.9785 213.287 50.9785C216.064 50.9785 218.227 51.7695 219.773 53.3516C221.32 54.9336 222.094 57.1191 222.094 59.9082V62.5098H209.42C209.479 64.0332 209.93 65.2227 210.773 66.0781C211.617 66.9336 212.801 67.3613 214.324 67.3613C215.508 67.3613 216.627 67.2383 217.682 66.9922C218.736 66.7461 219.838 66.3535 220.986 65.8145V69.9629C220.049 70.4316 219.047 70.7773 217.98 71C216.914 71.2344 215.613 71.3516 214.078 71.3516Z" fill="#0BBDA8"/>
<path d="M92.6836 21.709H94.4414C96.1641 21.709 97.4355 21.4219 98.2559 20.8477C99.0762 20.2734 99.4863 19.3711 99.4863 18.1406C99.4863 16.9219 99.0645 16.0547 98.2207 15.5391C97.3887 15.0234 96.0938 14.7656 94.3359 14.7656H92.6836V21.709ZM92.6836 26.1387V36H87.2344V10.3008H94.7227C98.2148 10.3008 100.799 10.9395 102.475 12.2168C104.15 13.4824 104.988 15.4102 104.988 18C104.988 19.5117 104.572 20.8594 103.74 22.043C102.908 23.2148 101.73 24.1348 100.207 24.8027C104.074 30.5801 106.594 34.3125 107.766 36H101.719L95.584 26.1387H92.6836ZM114.85 26.1387C114.85 28.084 115.166 29.5547 115.799 30.5508C116.443 31.5469 117.486 32.0449 118.928 32.0449C120.357 32.0449 121.383 31.5527 122.004 30.5684C122.637 29.5723 122.953 28.0957 122.953 26.1387C122.953 24.1934 122.637 22.7344 122.004 21.7617C121.371 20.7891 120.334 20.3027 118.893 20.3027C117.463 20.3027 116.432 20.7891 115.799 21.7617C115.166 22.7227 114.85 24.1816 114.85 26.1387ZM128.438 26.1387C128.438 29.3379 127.594 31.8398 125.906 33.6445C124.219 35.4492 121.869 36.3516 118.857 36.3516C116.971 36.3516 115.307 35.9414 113.865 35.1211C112.424 34.2891 111.316 33.0996 110.543 31.5527C109.77 30.0059 109.383 28.2012 109.383 26.1387C109.383 22.9277 110.221 20.4316 111.896 18.6504C113.572 16.8691 115.928 15.9785 118.963 15.9785C120.85 15.9785 122.514 16.3887 123.955 17.209C125.396 18.0293 126.504 19.207 127.277 20.7422C128.051 22.2773 128.438 24.0762 128.438 26.1387ZM137.139 26.1387C137.139 28.084 137.455 29.5547 138.088 30.5508C138.732 31.5469 139.775 32.0449 141.217 32.0449C142.646 32.0449 143.672 31.5527 144.293 30.5684C144.926 29.5723 145.242 28.0957 145.242 26.1387C145.242 24.1934 144.926 22.7344 144.293 21.7617C143.66 20.7891 142.623 20.3027 141.182 20.3027C139.752 20.3027 138.721 20.7891 138.088 21.7617C137.455 22.7227 137.139 24.1816 137.139 26.1387ZM150.727 26.1387C150.727 29.3379 149.883 31.8398 148.195 33.6445C146.508 35.4492 144.158 36.3516 141.146 36.3516C139.26 36.3516 137.596 35.9414 136.154 35.1211C134.713 34.2891 133.605 33.0996 132.832 31.5527C132.059 30.0059 131.672 28.2012 131.672 26.1387C131.672 22.9277 132.51 20.4316 134.186 18.6504C135.861 16.8691 138.217 15.9785 141.252 15.9785C143.139 15.9785 144.803 16.3887 146.244 17.209C147.686 18.0293 148.793 19.207 149.566 20.7422C150.34 22.2773 150.727 24.0762 150.727 26.1387ZM160.307 25.3125L162.645 22.3242L168.146 16.3477H174.193L166.389 24.873L174.668 36H168.48L162.82 28.0371L160.518 29.8828V36H155.156V8.64844H160.518V20.8477L160.236 25.3125H160.307ZM92.5957 71H87.2344V45.3008H101.965V49.7656H92.5957V56.3926H101.314V60.8398H92.5957V71ZM106.342 46.2676C106.342 44.5215 107.314 43.6484 109.26 43.6484C111.205 43.6484 112.178 44.5215 112.178 46.2676C112.178 47.0996 111.932 47.75 111.439 48.2188C110.959 48.6758 110.232 48.9043 109.26 48.9043C107.314 48.9043 106.342 48.0254 106.342 46.2676ZM111.932 71H106.57V51.3477H111.932V71ZM135.715 71H130.354V59.5215C130.354 58.1035 130.102 57.043 129.598 56.3398C129.094 55.625 128.291 55.2676 127.189 55.2676C125.689 55.2676 124.605 55.7715 123.938 56.7793C123.27 57.7754 122.936 59.4336 122.936 61.7539V71H117.574V51.3477H121.67L122.391 53.8613H122.689C123.287 52.9121 124.107 52.1973 125.15 51.7168C126.205 51.2246 127.4 50.9785 128.736 50.9785C131.021 50.9785 132.756 51.5996 133.939 52.8418C135.123 54.0723 135.715 55.8535 135.715 58.1855V71ZM153.715 71L152.678 68.3281H152.537C151.635 69.4648 150.703 70.2559 149.742 70.7012C148.793 71.1348 147.551 71.3516 146.016 71.3516C144.129 71.3516 142.641 70.8125 141.551 69.7344C140.473 68.6562 139.934 67.1211 139.934 65.1289C139.934 63.043 140.66 61.5078 142.113 60.5234C143.578 59.5273 145.781 58.9766 148.723 58.8711L152.133 58.7656V57.9043C152.133 55.9121 151.113 54.916 149.074 54.916C147.504 54.916 145.658 55.3906 143.537 56.3398L141.762 52.7188C144.023 51.5352 146.531 50.9434 149.285 50.9434C151.922 50.9434 153.943 51.5176 155.35 52.666C156.756 53.8145 157.459 55.5605 157.459 57.9043V71H153.715ZM152.133 61.8945L150.059 61.9648C148.5 62.0117 147.34 62.293 146.578 62.8086C145.816 63.3242 145.436 64.1094 145.436 65.1641C145.436 66.6758 146.303 67.4316 148.037 67.4316C149.279 67.4316 150.27 67.0742 151.008 66.3594C151.758 65.6445 152.133 64.6953 152.133 63.5117V61.8945ZM181.137 71H175.775V59.5215C175.775 58.1035 175.523 57.043 175.02 56.3398C174.516 55.625 173.713 55.2676 172.611 55.2676C171.111 55.2676 170.027 55.7715 169.359 56.7793C168.691 57.7754 168.357 59.4336 168.357 61.7539V71H162.996V51.3477H167.092L167.812 53.8613H168.111C168.709 52.9121 169.529 52.1973 170.572 51.7168C171.627 51.2246 172.822 50.9785 174.158 50.9785C176.443 50.9785 178.178 51.5996 179.361 52.8418C180.545 54.0723 181.137 55.8535 181.137 58.1855V71ZM194.637 71.3516C188.52 71.3516 185.461 67.9941 185.461 61.2793C185.461 57.9395 186.293 55.3906 187.957 53.6328C189.621 51.8633 192.006 50.9785 195.111 50.9785C197.385 50.9785 199.424 51.4238 201.229 52.3145L199.646 56.4629C198.803 56.123 198.018 55.8477 197.291 55.6367C196.564 55.4141 195.838 55.3027 195.111 55.3027C192.322 55.3027 190.928 57.2832 190.928 61.2441C190.928 65.0879 192.322 67.0098 195.111 67.0098C196.143 67.0098 197.098 66.875 197.977 66.6055C198.855 66.3242 199.734 65.8906 200.613 65.3047V69.8926C199.746 70.4434 198.867 70.8242 197.977 71.0352C197.098 71.2461 195.984 71.3516 194.637 71.3516ZM213.322 54.793C212.186 54.793 211.295 55.1562 210.65 55.8828C210.006 56.5977 209.637 57.6172 209.543 58.9414H217.066C217.043 57.6172 216.697 56.5977 216.029 55.8828C215.361 55.1562 214.459 54.793 213.322 54.793ZM214.078 71.3516C210.914 71.3516 208.441 70.4785 206.66 68.7324C204.879 66.9863 203.988 64.5137 203.988 61.3145C203.988 58.0215 204.809 55.4785 206.449 53.6855C208.102 51.8809 210.381 50.9785 213.287 50.9785C216.064 50.9785 218.227 51.7695 219.773 53.3516C221.32 54.9336 222.094 57.1191 222.094 59.9082V62.5098H209.42C209.479 64.0332 209.93 65.2227 210.773 66.0781C211.617 66.9336 212.801 67.3613 214.324 67.3613C215.508 67.3613 216.627 67.2383 217.682 66.9922C218.736 66.7461 219.838 66.3535 220.986 65.8145V69.9629C220.049 70.4316 219.047 70.7773 217.98 71C216.914 71.2344 215.613 71.3516 214.078 71.3516Z" fill="url(#paint5_linear)"/>
<defs>
<linearGradient id="paint0_linear" x1="45.1455" y1="34.6766" x2="26.4292" y2="42.2784" gradientUnits="userSpaceOnUse">
<stop stop-color="#2D097B"/>
<stop offset="0.458333" stop-color="#6C63FF"/>
<stop offset="1" stop-color="white" stop-opacity="0"/>
</linearGradient>
<linearGradient id="paint1_linear" x1="59.223" y1="39.777" x2="41.0816" y2="64.6619" gradientUnits="userSpaceOnUse">
<stop stop-color="#2D097B"/>
<stop offset="0.279923" stop-color="#6C63FF"/>
<stop offset="1" stop-color="white" stop-opacity="0"/>
</linearGradient>
<linearGradient id="paint2_linear" x1="54.5161" y1="28.6286" x2="10.5999" y2="57.0209" gradientUnits="userSpaceOnUse">
<stop stop-color="#2D097B"/>
<stop offset="0.479167" stop-color="#6C63FF"/>
<stop offset="1" stop-color="white" stop-opacity="0"/>
</linearGradient>
<linearGradient id="paint3_linear" x1="41.5746" y1="2.10267" x2="22.4875" y2="13.8317" gradientUnits="userSpaceOnUse">
<stop offset="0.203065" stop-color="#2D097B"/>
<stop offset="0.674289" stop-color="#6C63FF"/>
<stop offset="1" stop-color="white" stop-opacity="0"/>
</linearGradient>
<linearGradient id="paint4_linear" x1="65.5971" y1="49.5743" x2="49.9075" y2="62.4354" gradientUnits="userSpaceOnUse">
<stop offset="0.104382" stop-color="#2D097B"/>
<stop offset="0.590582" stop-color="#6C63FF"/>
<stop offset="1" stop-color="white" stop-opacity="0"/>
</linearGradient>
<linearGradient id="paint5_linear" x1="100.24" y1="8.57954" x2="144.291" y2="92.0183" gradientUnits="userSpaceOnUse">
<stop stop-color="#2D097B"/>
<stop offset="0.447871" stop-color="#6C63FF"/>
<stop offset="0.865377" stop-color="#FCFBFF" stop-opacity="0"/>
</linearGradient>
</defs>
</svg>
